# Blender 4.1.1
# www.blender.org
mtllib can.mtl
o 缶
v -0.039618 0.000000 0.452841
v -0.043599 0.068147 0.498341
v -0.127158 0.000000 0.436414
v -0.139935 0.068147 0.480264
v -0.209813 0.000000 0.403217
v -0.230894 0.068147 0.443731
v -0.284403 0.000000 0.354524
v -0.312979 0.068147 0.390145
v -0.348065 0.000000 0.292206
v -0.383037 0.068147 0.321566
v -0.398350 0.000000 0.218660
v -0.438375 0.068147 0.240630
v -0.433327 0.000000 0.136710
v -0.476867 0.068147 0.150446
v -0.451652 0.000000 0.049507
v -0.497032 0.068147 0.054481
v -0.452620 0.000000 -0.039599
v -0.498097 0.068147 -0.043578
v -0.436194 0.000000 -0.127183
v -0.480021 0.068147 -0.139962
v -0.403005 0.000000 -0.209879
v -0.443497 0.068147 -0.230967
v -0.354329 0.000000 -0.284510
v -0.389931 0.068147 -0.313097
v -0.292036 0.000000 -0.348208
v -0.321379 0.068147 -0.383194
v -0.218521 0.000000 -0.398523
v -0.240477 0.068147 -0.438566
v -0.136608 0.000000 -0.433524
v -0.150333 0.068147 -0.477083
v -0.049445 0.000000 -0.451865
v -0.054413 0.068147 -0.497267
v 0.039618 0.000000 -0.452841
v 0.043599 0.068147 -0.498341
v 0.127158 0.000000 -0.436414
v 0.139935 0.068147 -0.480264
v 0.209813 0.000000 -0.403217
v 0.230894 0.068147 -0.443731
v 0.284403 0.000000 -0.354524
v 0.312979 0.068147 -0.390145
v 0.348065 0.000000 -0.292206
v 0.383037 0.068147 -0.321566
v 0.398350 0.000000 -0.218660
v 0.438375 0.068147 -0.240630
v 0.433327 0.000000 -0.136710
v 0.476867 0.068147 -0.150446
v 0.451652 0.000000 -0.049507
v 0.497032 0.068147 -0.054481
v 0.452620 0.000000 0.039599
v 0.498097 0.068147 0.043578
v 0.436194 0.000000 0.127183
v 0.480021 0.068147 0.139962
v 0.403005 0.000000 0.209879
v 0.443497 0.068147 0.230967
v 0.354329 0.000000 0.284510
v 0.389931 0.068147 0.313097
v 0.292036 0.000000 0.348208
v 0.321379 0.068147 0.383194
v 0.218521 0.000000 0.398523
v 0.240477 0.068147 0.438566
v 0.136608 0.000000 0.433524
v 0.150333 0.068147 0.477083
v 0.049445 0.000000 0.451865
v 0.054413 0.068147 0.497267
v -0.043599 1.333642 0.498341
v -0.038088 1.500000 0.435356
v -0.122249 1.500000 0.419564
v -0.139935 1.333642 0.480264
v -0.201711 1.500000 0.387648
v -0.230894 1.333642 0.443731
v -0.273422 1.500000 0.340835
v -0.312979 1.333642 0.390145
v -0.334625 1.500000 0.280924
v -0.383037 1.333642 0.321566
v -0.382969 1.500000 0.210217
v -0.438375 1.333642 0.240630
v -0.416595 1.500000 0.131432
v -0.476867 1.333642 0.150446
v -0.434213 1.500000 0.047595
v -0.497032 1.333642 0.054481
v -0.435143 1.500000 -0.038070
v -0.498097 1.333642 -0.043578
v -0.419351 1.500000 -0.122272
v -0.480021 1.333642 -0.139962
v -0.387444 1.500000 -0.201775
v -0.443497 1.333642 -0.230967
v -0.340647 1.500000 -0.273525
v -0.389931 1.333642 -0.313097
v -0.280760 1.500000 -0.334763
v -0.321379 1.333642 -0.383194
v -0.210083 1.500000 -0.383136
v -0.240477 1.333642 -0.438566
v -0.131333 1.500000 -0.416785
v -0.150333 1.333642 -0.477083
v -0.047536 1.500000 -0.434418
v -0.054413 1.333642 -0.497267
v 0.038088 1.500000 -0.435356
v 0.043599 1.333642 -0.498341
v 0.122249 1.500000 -0.419564
v 0.139935 1.333642 -0.480264
v 0.201711 1.500000 -0.387648
v 0.230894 1.333642 -0.443731
v 0.273422 1.500000 -0.340835
v 0.312979 1.333642 -0.390145
v 0.334625 1.500000 -0.280924
v 0.383037 1.333642 -0.321566
v 0.382969 1.500000 -0.210217
v 0.438375 1.333642 -0.240630
v 0.416595 1.500000 -0.131432
v 0.476867 1.333642 -0.150446
v 0.434213 1.500000 -0.047595
v 0.497032 1.333642 -0.054481
v 0.435143 1.500000 0.038070
v 0.498097 1.333642 0.043578
v 0.419351 1.500000 0.122272
v 0.480021 1.333642 0.139962
v 0.387444 1.500000 0.201775
v 0.443497 1.333642 0.230967
v 0.340647 1.500000 0.273525
v 0.389931 1.333642 0.313097
v 0.280760 1.500000 0.334763
v 0.321379 1.333642 0.383194
v 0.210083 1.500000 0.383136
v 0.240477 1.333642 0.438566
v 0.131333 1.500000 0.416785
v 0.150333 1.333642 0.477083
v 0.047536 1.500000 0.434418
v 0.054413 1.333642 0.497267
vn -0.3727 -0.0000 0.9279
vn -0.6995 -0.0000 0.7146
vn -0.8255 -0.0000 0.5644
vn -0.9197 -0.0000 0.3926
vn -0.9786 -0.0000 0.2056
vn -0.9999 -0.0000 0.0109
vn -0.9829 -0.0000 -0.1843
vn -0.9280 -0.0000 -0.3725
vn -0.8376 -0.0000 -0.5463
vn -0.7149 -0.0000 -0.6992
vn -0.5648 -0.0000 -0.8252
vn -0.3929 -0.0000 -0.9196
vn -0.2059 -0.0000 -0.9786
vn -0.0110 -0.0000 -0.9999
vn 0.1844 -0.0000 -0.9828
vn 0.3727 -0.0000 -0.9279
vn 0.5466 -0.0000 -0.8374
vn 0.6995 -0.0000 -0.7146
vn 0.8255 -0.0000 -0.5644
vn 0.9197 -0.0000 -0.3926
vn 0.9786 -0.0000 -0.2056
vn 0.9999 -0.0000 -0.0109
vn 0.9829 -0.0000 0.1843
vn 0.9280 -0.0000 0.3725
vn 0.8376 -0.0000 0.5463
vn 0.7149 -0.0000 0.6992
vn 0.5648 -0.0000 0.8252
vn 0.3929 -0.0000 0.9196
vn 0.2059 -0.0000 0.9786
vn 0.0110 -0.0000 0.9999
vn -0.5466 -0.0000 0.8374
vn -0.0000 1.0000 -0.0000
vn -0.1534 -0.5549 0.8177
vn -0.3101 -0.5549 0.7720
vn -0.4548 -0.5548 0.6967
vn -0.5820 -0.5548 0.5945
vn -0.6868 -0.5548 0.4696
vn -0.7652 -0.5547 0.3266
vn -0.8143 -0.5547 0.1711
vn -0.8320 -0.5547 0.0090
vn -0.8178 -0.5547 -0.1534
vn -0.7722 -0.5547 -0.3099
vn -0.6969 -0.5547 -0.4545
vn -0.5948 -0.5548 -0.5817
vn -0.4699 -0.5548 -0.6866
vn -0.3269 -0.5548 -0.7650
vn -0.1713 -0.5549 -0.8141
vn -0.0091 -0.5549 -0.8319
vn 0.1534 -0.5549 -0.8177
vn 0.3101 -0.5549 -0.7720
vn 0.4548 -0.5548 -0.6967
vn 0.5820 -0.5548 -0.5945
vn 0.6868 -0.5548 -0.4696
vn 0.7652 -0.5547 -0.3266
vn 0.8143 -0.5547 -0.1711
vn 0.8320 -0.5547 -0.0090
vn 0.8178 -0.5547 0.1534
vn 0.7722 -0.5547 0.3099
vn 0.6969 -0.5547 0.4545
vn 0.5948 -0.5548 0.5817
vn 0.4699 -0.5548 0.6866
vn 0.3269 -0.5548 0.7650
vn 0.1713 -0.5549 0.8141
vn 0.0091 -0.5549 0.8319
vn -0.0000 -1.0000 -0.0000
vn -0.1725 0.3538 0.9193
vn -0.3486 0.3538 0.8679
vn -0.5113 0.3537 0.7832
vn -0.6543 0.3537 0.6684
vn -0.7721 0.3537 0.5279
vn -0.8603 0.3537 0.3672
vn -0.9154 0.3536 0.1924
vn -0.9353 0.3536 0.0102
vn -0.9194 0.3536 -0.1724
vn -0.8681 0.3536 -0.3484
vn -0.7835 0.3537 -0.5110
vn -0.6687 0.3537 -0.6540
vn -0.5283 0.3537 -0.7719
vn -0.3675 0.3537 -0.8601
vn -0.1926 0.3538 -0.9153
vn -0.0102 0.3538 -0.9353
vn 0.1725 0.3538 -0.9193
vn 0.3486 0.3538 -0.8679
vn 0.5113 0.3537 -0.7832
vn 0.6543 0.3537 -0.6684
vn 0.7721 0.3537 -0.5279
vn 0.8603 0.3537 -0.3672
vn 0.9154 0.3536 -0.1924
vn 0.9353 0.3536 -0.0102
vn 0.9194 0.3536 0.1724
vn 0.8681 0.3536 0.3484
vn 0.7835 0.3537 0.5110
vn 0.6687 0.3537 0.6540
vn 0.5283 0.3537 0.7719
vn 0.3675 0.3537 0.8601
vn 0.1926 0.3538 0.9153
vn 0.0102 0.3538 0.9353
vn -0.1844 -0.0000 0.9828
vt 0.051089 0.958096
vt 0.313954 0.927556
vt 0.313954 0.958095
vt 0.051089 0.897016
vt 0.313954 0.866476
vt 0.313954 0.897016
vt 0.051089 0.866476
vt 0.313954 0.835937
vt 0.051089 0.835937
vt 0.313954 0.805397
vt 0.051089 0.805397
vt 0.313954 0.774857
vt 0.051089 0.774857
vt 0.313954 0.744318
vt 0.051089 0.744318
vt 0.313954 0.713778
vt 0.051089 0.713778
vt 0.313954 0.683238
vt 0.051089 0.683238
vt 0.313954 0.652699
vt 0.051089 0.652698
vt 0.313954 0.622159
vt 0.051089 0.622159
vt 0.313954 0.591619
vt 0.051089 0.591619
vt 0.313954 0.561079
vt 0.051089 0.561079
vt 0.313954 0.530540
vt 0.051089 0.530540
vt 0.313954 0.500000
vt 0.051089 0.500000
vt 0.313954 0.469460
vt 0.051089 0.469460
vt 0.313954 0.438921
vt 0.051089 0.438921
vt 0.313954 0.408381
vt 0.051089 0.408381
vt 0.313954 0.377841
vt 0.051089 0.377841
vt 0.313954 0.347301
vt 0.051089 0.347301
vt 0.313954 0.316762
vt 0.051089 0.316762
vt 0.313954 0.286222
vt 0.051089 0.286222
vt 0.313954 0.255682
vt 0.051089 0.255682
vt 0.313954 0.225143
vt 0.051089 0.225143
vt 0.313954 0.194603
vt 0.051089 0.194603
vt 0.313954 0.164063
vt 0.051089 0.164063
vt 0.313954 0.133524
vt 0.051089 0.133524
vt 0.313954 0.102984
vt 0.051089 0.102984
vt 0.313954 0.072444
vt 0.051089 0.072444
vt 0.313954 0.041905
vt 0.051089 0.041905
vt 0.313954 0.011365
vt 0.051089 0.927556
vt 0.336683 0.504678
vt 0.458786 0.355895
vt 0.607568 0.477998
vt 0.513998 0.011477
vt 0.538678 0.036797
vt 0.511460 0.031383
vt 0.545051 0.017769
vt 0.564317 0.047417
vt 0.599672 0.046965
vt 0.574279 0.029998
vt 0.600560 0.047694
vt 0.607014 0.082458
vt 0.587391 0.062835
vt 0.639851 0.095570
vt 0.622885 0.070177
vt 0.640393 0.096584
vt 0.633052 0.131172
vt 0.622432 0.105533
vt 0.658372 0.155852
vt 0.652414 0.125899
vt 0.658484 0.187535
vt 0.638466 0.158390
vt 0.658484 0.156996
vt 0.658372 0.188679
vt 0.633052 0.213359
vt 0.638466 0.186141
vt 0.652080 0.219732
vt 0.622432 0.238998
vt 0.622884 0.274353
vt 0.639851 0.248961
vt 0.622155 0.275242
vt 0.587391 0.281696
vt 0.607014 0.262072
vt 0.574279 0.314533
vt 0.599672 0.297566
vt 0.573265 0.315075
vt 0.538678 0.307733
vt 0.564316 0.297113
vt 0.513997 0.333053
vt 0.543950 0.327095
vt 0.482314 0.333166
vt 0.511459 0.313147
vt 0.512854 0.333166
vt 0.481170 0.333053
vt 0.456490 0.307733
vt 0.483708 0.313147
vt 0.450117 0.326762
vt 0.430851 0.297113
vt 0.395496 0.297566
vt 0.420889 0.314533
vt 0.394607 0.296837
vt 0.388154 0.262072
vt 0.407777 0.281695
vt 0.355316 0.248960
vt 0.372283 0.274353
vt 0.354775 0.247947
vt 0.362116 0.213359
vt 0.372736 0.238998
vt 0.336796 0.188679
vt 0.342754 0.218632
vt 0.336683 0.156995
vt 0.356702 0.186141
vt 0.336683 0.187535
vt 0.336796 0.155852
vt 0.362116 0.131172
vt 0.356702 0.158390
vt 0.343088 0.124799
vt 0.372736 0.105533
vt 0.372284 0.070177
vt 0.355317 0.095570
vt 0.373013 0.069289
vt 0.407777 0.062835
vt 0.388154 0.082458
vt 0.420889 0.029998
vt 0.395496 0.046965
vt 0.421903 0.029456
vt 0.456490 0.036797
vt 0.430851 0.047417
vt 0.481170 0.011477
vt 0.451217 0.017435
vt 0.512854 0.011365
vt 0.483708 0.031383
vt 0.482314 0.011365
vt 0.011365 0.986705
vt 0.011365 0.960025
vt 0.011365 0.956165
vt 0.011365 0.929486
vt 0.011365 0.925626
vt 0.011365 0.898946
vt 0.011365 0.895086
vt 0.011365 0.868406
vt 0.011365 0.837867
vt 0.011365 0.807327
vt 0.011365 0.776787
vt 0.011365 0.746248
vt 0.011365 0.742388
vt 0.011365 0.715708
vt 0.011365 0.711848
vt 0.011365 0.685168
vt 0.011365 0.681308
vt 0.011365 0.654628
vt 0.011365 0.650769
vt 0.011365 0.624089
vt 0.011365 0.593549
vt 0.011365 0.563009
vt 0.011365 0.532470
vt 0.011365 0.501930
vt 0.011365 0.498070
vt 0.011365 0.471390
vt 0.011365 0.467530
vt 0.011365 0.440851
vt 0.011365 0.436991
vt 0.011365 0.410311
vt 0.011365 0.406451
vt 0.011365 0.379771
vt 0.011365 0.349231
vt 0.011365 0.318692
vt 0.011365 0.288152
vt 0.011365 0.257612
vt 0.011365 0.253752
vt 0.011365 0.227073
vt 0.011365 0.223213
vt 0.011365 0.196533
vt 0.011365 0.192673
vt 0.011365 0.165993
vt 0.011365 0.162133
vt 0.011365 0.135454
vt 0.011365 0.104914
vt 0.011365 0.074374
vt 0.011365 0.043834
vt 0.011365 0.013295
vt 0.051089 0.011365
vt 0.051089 0.988635
vt 0.313954 0.988635
vt 0.607568 0.504678
vt 0.602363 0.530845
vt 0.592153 0.555494
vt 0.577330 0.577677
vt 0.558465 0.596543
vt 0.536281 0.611365
vt 0.511633 0.621575
vt 0.485465 0.626780
vt 0.458786 0.626780
vt 0.432618 0.621575
vt 0.407970 0.611365
vt 0.385786 0.596543
vt 0.366921 0.577677
vt 0.352098 0.555494
vt 0.341888 0.530845
vt 0.336683 0.477998
vt 0.341888 0.451831
vt 0.352098 0.427182
vt 0.366921 0.404998
vt 0.385786 0.386133
vt 0.407970 0.371310
vt 0.432618 0.361101
vt 0.485465 0.355896
vt 0.511633 0.361101
vt 0.536281 0.371310
vt 0.558465 0.386133
vt 0.577330 0.404998
vt 0.592153 0.427182
vt 0.602363 0.451831
vt 0.543951 0.017435
vt 0.573266 0.029456
vt 0.622155 0.069289
vt 0.652080 0.124799
vt 0.652414 0.218632
vt 0.640393 0.247947
vt 0.600560 0.296837
vt 0.545050 0.326762
vt 0.451217 0.327095
vt 0.421902 0.315075
vt 0.373013 0.275242
vt 0.343088 0.219732
vt 0.342754 0.125899
vt 0.354775 0.096584
vt 0.394608 0.047694
vt 0.450118 0.017769
vt 0.011365 0.864546
vt 0.011365 0.834007
vt 0.011365 0.803467
vt 0.011365 0.772927
vt 0.011365 0.620229
vt 0.011365 0.589689
vt 0.011365 0.559149
vt 0.011365 0.528610
vt 0.011365 0.375911
vt 0.011365 0.345372
vt 0.011365 0.314832
vt 0.011365 0.284292
vt 0.011365 0.131594
vt 0.011365 0.101054
vt 0.011365 0.070514
vt 0.011365 0.039975
s 0
usemtl マテリアル
f 68/1/1 6/2/1 4/3/1
f 72/4/2 10/5/2 8/6/2
f 74/7/3 12/8/3 10/5/3
f 76/9/4 14/10/4 12/8/4
f 78/11/5 16/12/5 14/10/5
f 80/13/6 18/14/6 16/12/6
f 82/15/7 20/16/7 18/14/7
f 84/17/8 22/18/8 20/16/8
f 86/19/9 24/20/9 22/18/9
f 88/21/10 26/22/10 24/20/10
f 90/23/11 28/24/11 26/22/11
f 92/25/12 30/26/12 28/24/12
f 94/27/13 32/28/13 30/26/13
f 96/29/14 34/30/14 32/28/14
f 98/31/15 36/32/15 34/30/15
f 100/33/16 38/34/16 36/32/16
f 102/35/17 40/36/17 38/34/17
f 104/37/18 42/38/18 40/36/18
f 106/39/19 44/40/19 42/38/19
f 108/41/20 46/42/20 44/40/20
f 110/43/21 48/44/21 46/42/21
f 112/45/22 50/46/22 48/44/22
f 114/47/23 52/48/23 50/46/23
f 116/49/24 54/50/24 52/48/24
f 118/51/25 56/52/25 54/50/25
f 120/53/26 58/54/26 56/52/26
f 122/55/27 60/56/27 58/54/27
f 124/57/28 62/58/28 60/56/28
f 126/59/29 64/60/29 62/58/29
f 128/61/30 2/62/30 64/60/30
f 70/63/31 8/6/31 6/2/31
f 101/64/32 85/65/32 69/66/32
f 2/67/33 3/68/33 1/69/33
f 4/70/34 5/71/34 3/68/34
f 8/72/35 5/71/35 6/73/35
f 8/74/36 9/75/36 7/76/36
f 12/77/37 9/75/37 10/78/37
f 12/79/38 13/80/38 11/81/38
f 16/82/39 13/80/39 14/83/39
f 18/84/40 15/85/40 16/86/40
f 18/87/41 19/88/41 17/89/41
f 20/90/42 21/91/42 19/88/42
f 24/92/43 21/91/43 22/93/43
f 24/94/44 25/95/44 23/96/44
f 28/97/45 25/95/45 26/98/45
f 28/99/46 29/100/46 27/101/46
f 32/102/47 29/100/47 30/103/47
f 34/104/48 31/105/48 32/106/48
f 34/107/49 35/108/49 33/109/49
f 36/110/50 37/111/50 35/108/50
f 40/112/51 37/111/51 38/113/51
f 40/114/52 41/115/52 39/116/52
f 44/117/53 41/115/53 42/118/53
f 44/119/54 45/120/54 43/121/54
f 48/122/55 45/120/55 46/123/55
f 50/124/56 47/125/56 48/126/56
f 50/127/57 51/128/57 49/129/57
f 52/130/58 53/131/58 51/128/58
f 56/132/59 53/131/59 54/133/59
f 56/134/60 57/135/60 55/136/60
f 60/137/61 57/135/61 58/138/61
f 60/139/62 61/140/62 59/141/62
f 64/142/63 61/140/63 62/143/63
f 2/144/64 63/145/64 64/146/64
f 31/105/65 47/125/65 63/145/65
f 68/1/66 66/147/66 67/148/66
f 70/63/67 67/149/67 69/150/67
f 72/4/68 69/151/68 71/152/68
f 74/7/69 71/153/69 73/154/69
f 74/7/70 75/155/70 76/9/70
f 76/9/71 77/156/71 78/11/71
f 78/11/72 79/157/72 80/13/72
f 80/13/73 81/158/73 82/15/73
f 84/17/74 81/159/74 83/160/74
f 86/19/75 83/161/75 85/162/75
f 88/21/76 85/163/76 87/164/76
f 90/23/77 87/165/77 89/166/77
f 90/23/78 91/167/78 92/25/78
f 92/25/79 93/168/79 94/27/79
f 94/27/80 95/169/80 96/29/80
f 96/29/81 97/170/81 98/31/81
f 100/33/82 97/171/82 99/172/82
f 102/35/83 99/173/83 101/174/83
f 104/37/84 101/175/84 103/176/84
f 106/39/85 103/177/85 105/178/85
f 106/39/86 107/179/86 108/41/86
f 108/41/87 109/180/87 110/43/87
f 110/43/88 111/181/88 112/45/88
f 112/45/89 113/182/89 114/47/89
f 116/49/90 113/183/90 115/184/90
f 118/51/91 115/185/91 117/186/91
f 120/53/92 117/187/92 119/188/92
f 122/55/93 119/189/93 121/190/93
f 122/55/94 123/191/94 124/57/94
f 124/57/95 125/192/95 126/59/95
f 126/59/96 127/193/96 128/61/96
f 128/61/97 66/194/97 65/195/97
f 65/196/98 4/3/98 2/197/98
f 68/1/1 70/63/1 6/2/1
f 72/4/2 74/7/2 10/5/2
f 74/7/3 76/9/3 12/8/3
f 76/9/4 78/11/4 14/10/4
f 78/11/5 80/13/5 16/12/5
f 80/13/6 82/15/6 18/14/6
f 82/15/7 84/17/7 20/16/7
f 84/17/8 86/19/8 22/18/8
f 86/19/9 88/21/9 24/20/9
f 88/21/10 90/23/10 26/22/10
f 90/23/11 92/25/11 28/24/11
f 92/25/12 94/27/12 30/26/12
f 94/27/13 96/29/13 32/28/13
f 96/29/14 98/31/14 34/30/14
f 98/31/15 100/33/15 36/32/15
f 100/33/16 102/35/16 38/34/16
f 102/35/17 104/37/17 40/36/17
f 104/37/18 106/39/18 42/38/18
f 106/39/19 108/41/19 44/40/19
f 108/41/20 110/43/20 46/42/20
f 110/43/21 112/45/21 48/44/21
f 112/45/22 114/47/22 50/46/22
f 114/47/23 116/49/23 52/48/23
f 116/49/24 118/51/24 54/50/24
f 118/51/25 120/53/25 56/52/25
f 120/53/26 122/55/26 58/54/26
f 122/55/27 124/57/27 60/56/27
f 124/57/28 126/59/28 62/58/28
f 126/59/29 128/61/29 64/60/29
f 128/61/30 65/195/30 2/62/30
f 70/63/31 72/4/31 8/6/31
f 69/66/32 67/198/32 66/199/32
f 66/199/32 127/200/32 125/201/32
f 125/201/32 123/202/32 121/203/32
f 121/203/32 119/204/32 125/201/32
f 119/204/32 117/205/32 125/201/32
f 117/205/32 115/206/32 113/207/32
f 113/207/32 111/208/32 109/209/32
f 109/209/32 107/210/32 105/211/32
f 105/211/32 103/212/32 109/209/32
f 103/212/32 101/64/32 109/209/32
f 101/64/32 99/213/32 97/214/32
f 97/214/32 95/215/32 93/216/32
f 93/216/32 91/217/32 89/218/32
f 89/218/32 87/219/32 93/216/32
f 87/219/32 85/65/32 93/216/32
f 85/65/32 83/220/32 81/221/32
f 81/221/32 79/222/32 77/223/32
f 77/223/32 75/224/32 73/225/32
f 73/225/32 71/226/32 77/223/32
f 71/226/32 69/66/32 77/223/32
f 69/66/32 66/199/32 117/205/32
f 66/199/32 125/201/32 117/205/32
f 117/205/32 113/207/32 101/64/32
f 113/207/32 109/209/32 101/64/32
f 101/64/32 97/214/32 85/65/32
f 97/214/32 93/216/32 85/65/32
f 85/65/32 81/221/32 69/66/32
f 81/221/32 77/223/32 69/66/32
f 69/66/32 117/205/32 101/64/32
f 2/67/33 4/227/33 3/68/33
f 4/70/34 6/228/34 5/71/34
f 8/72/35 7/76/35 5/71/35
f 8/74/36 10/229/36 9/75/36
f 12/77/37 11/81/37 9/75/37
f 12/79/38 14/230/38 13/80/38
f 16/82/39 15/85/39 13/80/39
f 18/84/40 17/89/40 15/85/40
f 18/87/41 20/231/41 19/88/41
f 20/90/42 22/232/42 21/91/42
f 24/92/43 23/96/43 21/91/43
f 24/94/44 26/233/44 25/95/44
f 28/97/45 27/101/45 25/95/45
f 28/99/46 30/234/46 29/100/46
f 32/102/47 31/105/47 29/100/47
f 34/104/48 33/109/48 31/105/48
f 34/107/49 36/235/49 35/108/49
f 36/110/50 38/236/50 37/111/50
f 40/112/51 39/116/51 37/111/51
f 40/114/52 42/237/52 41/115/52
f 44/117/53 43/121/53 41/115/53
f 44/119/54 46/238/54 45/120/54
f 48/122/55 47/125/55 45/120/55
f 50/124/56 49/129/56 47/125/56
f 50/127/57 52/239/57 51/128/57
f 52/130/58 54/240/58 53/131/58
f 56/132/59 55/136/59 53/131/59
f 56/134/60 58/241/60 57/135/60
f 60/137/61 59/141/61 57/135/61
f 60/139/62 62/242/62 61/140/62
f 64/142/63 63/145/63 61/140/63
f 2/144/64 1/69/64 63/145/64
f 63/145/65 1/69/65 3/68/65
f 3/68/65 5/71/65 7/76/65
f 7/76/65 9/75/65 11/81/65
f 11/81/65 13/80/65 15/85/65
f 15/85/65 17/89/65 19/88/65
f 19/88/65 21/91/65 23/96/65
f 23/96/65 25/95/65 27/101/65
f 27/101/65 29/100/65 31/105/65
f 31/105/65 33/109/65 35/108/65
f 35/108/65 37/111/65 39/116/65
f 39/116/65 41/115/65 43/121/65
f 43/121/65 45/120/65 47/125/65
f 47/125/65 49/129/65 51/128/65
f 51/128/65 53/131/65 55/136/65
f 55/136/65 57/135/65 59/141/65
f 59/141/65 61/140/65 63/145/65
f 63/145/65 3/68/65 15/85/65
f 3/68/65 7/76/65 15/85/65
f 7/76/65 11/81/65 15/85/65
f 15/85/65 19/88/65 31/105/65
f 19/88/65 23/96/65 31/105/65
f 23/96/65 27/101/65 31/105/65
f 31/105/65 35/108/65 47/125/65
f 35/108/65 39/116/65 47/125/65
f 39/116/65 43/121/65 47/125/65
f 47/125/65 51/128/65 63/145/65
f 51/128/65 55/136/65 63/145/65
f 55/136/65 59/141/65 63/145/65
f 63/145/65 15/85/65 31/105/65
f 68/1/66 65/196/66 66/147/66
f 70/63/67 68/1/67 67/149/67
f 72/4/68 70/63/68 69/151/68
f 74/7/69 72/4/69 71/153/69
f 74/7/70 73/243/70 75/155/70
f 76/9/71 75/244/71 77/156/71
f 78/11/72 77/245/72 79/157/72
f 80/13/73 79/246/73 81/158/73
f 84/17/74 82/15/74 81/159/74
f 86/19/75 84/17/75 83/161/75
f 88/21/76 86/19/76 85/163/76
f 90/23/77 88/21/77 87/165/77
f 90/23/78 89/247/78 91/167/78
f 92/25/79 91/248/79 93/168/79
f 94/27/80 93/249/80 95/169/80
f 96/29/81 95/250/81 97/170/81
f 100/33/82 98/31/82 97/171/82
f 102/35/83 100/33/83 99/173/83
f 104/37/84 102/35/84 101/175/84
f 106/39/85 104/37/85 103/177/85
f 106/39/86 105/251/86 107/179/86
f 108/41/87 107/252/87 109/180/87
f 110/43/88 109/253/88 111/181/88
f 112/45/89 111/254/89 113/182/89
f 116/49/90 114/47/90 113/183/90
f 118/51/91 116/49/91 115/185/91
f 120/53/92 118/51/92 117/187/92
f 122/55/93 120/53/93 119/189/93
f 122/55/94 121/255/94 123/191/94
f 124/57/95 123/256/95 125/192/95
f 126/59/96 125/257/96 127/193/96
f 128/61/97 127/258/97 66/194/97
f 65/196/98 68/1/98 4/3/98
