# Blender 4.1.1
# www.blender.org
mtllib soda.mtl
o 円柱
v 0.000000 0.493153 -1.073558
v 0.000000 1.049259 -1.073558
v 0.054245 0.493153 -1.068215
v 0.054245 1.049259 -1.068215
v 0.106406 0.493153 -1.052393
v 0.106406 1.049259 -1.052393
v 0.154478 0.493153 -1.026698
v 0.154478 1.049259 -1.026698
v 0.196613 0.493153 -0.992118
v 0.196613 1.049259 -0.992118
v 0.231193 0.493153 -0.949983
v 0.231193 1.049259 -0.949983
v 0.256887 0.493153 -0.901911
v 0.256887 1.049259 -0.901911
v 0.272710 0.493153 -0.849751
v 0.272710 1.049259 -0.849751
v 0.278053 0.493153 -0.795505
v 0.278053 1.049259 -0.795505
v 0.272710 0.493153 -0.741260
v 0.272710 1.049259 -0.741260
v 0.256887 0.493153 -0.689099
v 0.256887 1.049259 -0.689099
v 0.231193 0.493153 -0.641027
v 0.231193 1.049259 -0.641027
v 0.196613 0.493153 -0.598892
v 0.196613 1.049259 -0.598892
v 0.154478 0.493153 -0.564313
v 0.154478 1.049259 -0.564313
v 0.106406 0.493153 -0.538618
v 0.106406 1.049259 -0.538618
v 0.054245 0.493153 -0.522795
v 0.054245 1.049259 -0.522795
v 0.000000 0.493153 -0.517452
v 0.000000 1.049259 -0.517452
v -0.054245 0.493153 -0.522795
v -0.054245 1.049259 -0.522795
v -0.106406 0.493153 -0.538618
v -0.106406 1.049259 -0.538618
v -0.154478 0.493153 -0.564313
v -0.154478 1.049259 -0.564313
v -0.196613 0.493153 -0.598892
v -0.196613 1.049259 -0.598892
v -0.231193 0.493153 -0.641027
v -0.231193 1.049259 -0.641027
v -0.256887 0.493153 -0.689099
v -0.256887 1.049259 -0.689099
v -0.272710 0.493153 -0.741260
v -0.272710 1.049259 -0.741260
v -0.278053 0.493153 -0.795505
v -0.278053 1.049259 -0.795505
v -0.272710 0.493153 -0.849751
v -0.272710 1.049259 -0.849751
v -0.256887 0.493153 -0.901911
v -0.256887 1.049259 -0.901911
v -0.231193 0.493153 -0.949983
v -0.231193 1.049259 -0.949983
v -0.196613 0.493153 -0.992118
v -0.196613 1.049259 -0.992118
v -0.154478 0.493153 -1.026698
v -0.154478 1.049259 -1.026698
v -0.106406 0.493153 -1.052393
v -0.106406 1.049259 -1.052393
v -0.054245 0.493153 -1.068215
v -0.054245 1.049259 -1.068215
vn 0.0980 -0.0000 -0.9952
vn 0.2903 -0.0000 -0.9569
vn 0.4714 -0.0000 -0.8819
vn 0.6344 -0.0000 -0.7730
vn 0.7730 -0.0000 -0.6344
vn 0.8819 -0.0000 -0.4714
vn 0.9569 -0.0000 -0.2903
vn 0.9952 -0.0000 -0.0980
vn 0.9952 -0.0000 0.0980
vn 0.9569 -0.0000 0.2903
vn 0.8819 -0.0000 0.4714
vn 0.7730 -0.0000 0.6344
vn 0.6344 -0.0000 0.7730
vn 0.4714 -0.0000 0.8819
vn 0.2903 -0.0000 0.9569
vn 0.0980 -0.0000 0.9952
vn -0.0980 -0.0000 0.9952
vn -0.2903 -0.0000 0.9569
vn -0.4714 -0.0000 0.8819
vn -0.6344 -0.0000 0.7730
vn -0.7730 -0.0000 0.6344
vn -0.8819 -0.0000 0.4714
vn -0.9569 -0.0000 0.2903
vn -0.9952 -0.0000 0.0980
vn -0.9952 -0.0000 -0.0980
vn -0.9569 -0.0000 -0.2903
vn -0.8819 -0.0000 -0.4714
vn -0.7730 -0.0000 -0.6344
vn -0.6344 -0.0000 -0.7730
vn -0.4714 -0.0000 -0.8819
vn -0.0000 1.0000 -0.0000
vn -0.2903 -0.0000 -0.9569
vn -0.0980 -0.0000 -0.9952
vn -0.0000 -1.0000 -0.0000
vt 0.992584 0.500000
vt 0.961797 0.007417
vt 0.992584 0.007417
vt 0.961797 0.500000
vt 0.931011 0.007417
vt 0.931011 0.500000
vt 0.900224 0.007417
vt 0.900224 0.500000
vt 0.869438 0.007417
vt 0.869438 0.500000
vt 0.838651 0.007417
vt 0.838651 0.500000
vt 0.807865 0.007417
vt 0.807865 0.500000
vt 0.777078 0.007417
vt 0.777078 0.500000
vt 0.746292 0.007417
vt 0.746292 0.500000
vt 0.715505 0.007417
vt 0.715505 0.500000
vt 0.684719 0.007417
vt 0.684719 0.500000
vt 0.653932 0.007417
vt 0.653932 0.500000
vt 0.623146 0.007417
vt 0.623146 0.500000
vt 0.592359 0.007417
vt 0.592359 0.500000
vt 0.561573 0.007417
vt 0.561573 0.500000
vt 0.530786 0.007417
vt 0.530786 0.500000
vt 0.500000 0.007417
vt 0.500000 0.500000
vt 0.469214 0.007417
vt 0.469214 0.500000
vt 0.438427 0.007417
vt 0.438427 0.500000
vt 0.407641 0.007417
vt 0.407641 0.500000
vt 0.376854 0.007417
vt 0.376854 0.500000
vt 0.346068 0.007417
vt 0.346068 0.500000
vt 0.315281 0.007417
vt 0.315281 0.500000
vt 0.284495 0.007417
vt 0.284495 0.500000
vt 0.253708 0.007417
vt 0.253708 0.500000
vt 0.222922 0.007417
vt 0.222922 0.500000
vt 0.192135 0.007417
vt 0.192135 0.500000
vt 0.161349 0.007417
vt 0.161349 0.500000
vt 0.130562 0.007417
vt 0.130562 0.500000
vt 0.099776 0.007417
vt 0.099776 0.500000
vt 0.068989 0.007417
vt 0.128824 0.529804
vt 0.385786 0.636241
vt 0.279349 0.893203
vt 0.068989 0.500000
vt 0.038203 0.007417
vt 0.038203 0.500000
vt 0.007417 0.007417
vt 0.650629 0.518612
vt 0.419369 0.673135
vt 0.573892 0.904395
vt 0.242455 0.904395
vt 0.204087 0.908174
vt 0.165718 0.904395
vt 0.128824 0.893203
vt 0.094823 0.875029
vt 0.065020 0.850570
vt 0.040561 0.820767
vt 0.022387 0.786766
vt 0.011195 0.749872
vt 0.007416 0.711503
vt 0.011195 0.673135
vt 0.022387 0.636241
vt 0.040561 0.602239
vt 0.065020 0.572436
vt 0.094823 0.547978
vt 0.165718 0.518612
vt 0.279349 0.529804
vt 0.204087 0.514833
vt 0.242455 0.518612
vt 0.313351 0.547978
vt 0.343154 0.572436
vt 0.367612 0.602239
vt 0.396978 0.673135
vt 0.385786 0.786766
vt 0.400757 0.711503
vt 0.396978 0.749872
vt 0.367612 0.820767
vt 0.343154 0.850570
vt 0.313351 0.875029
vt 0.007417 0.500000
vt 0.612260 0.908174
vt 0.650629 0.904395
vt 0.687523 0.893203
vt 0.721524 0.875029
vt 0.751327 0.850570
vt 0.775786 0.820767
vt 0.793960 0.786766
vt 0.805152 0.749872
vt 0.808931 0.711503
vt 0.805152 0.673135
vt 0.793960 0.636241
vt 0.775786 0.602239
vt 0.751327 0.572436
vt 0.721524 0.547978
vt 0.687523 0.529804
vt 0.612260 0.514833
vt 0.573892 0.518612
vt 0.536998 0.529804
vt 0.502996 0.547978
vt 0.473193 0.572436
vt 0.448735 0.602239
vt 0.430561 0.636241
vt 0.415590 0.711503
vt 0.419369 0.749872
vt 0.430561 0.786766
vt 0.448735 0.820767
vt 0.473193 0.850570
vt 0.502996 0.875029
vt 0.536998 0.893203
s 0
usemtl マテリアル.001
f 2/1/1 3/2/1 1/3/1
f 4/4/2 5/5/2 3/2/2
f 6/6/3 7/7/3 5/5/3
f 8/8/4 9/9/4 7/7/4
f 10/10/5 11/11/5 9/9/5
f 12/12/6 13/13/6 11/11/6
f 14/14/7 15/15/7 13/13/7
f 16/16/8 17/17/8 15/15/8
f 18/18/9 19/19/9 17/17/9
f 20/20/10 21/21/10 19/19/10
f 22/22/11 23/23/11 21/21/11
f 24/24/12 25/25/12 23/23/12
f 26/26/13 27/27/13 25/25/13
f 28/28/14 29/29/14 27/27/14
f 30/30/15 31/31/15 29/29/15
f 32/32/16 33/33/16 31/31/16
f 34/34/17 35/35/17 33/33/17
f 36/36/18 37/37/18 35/35/18
f 38/38/19 39/39/19 37/37/19
f 40/40/20 41/41/20 39/39/20
f 42/42/21 43/43/21 41/41/21
f 44/44/22 45/45/22 43/43/22
f 46/46/23 47/47/23 45/45/23
f 48/48/24 49/49/24 47/47/24
f 50/50/25 51/51/25 49/49/25
f 52/52/26 53/53/26 51/51/26
f 54/54/27 55/55/27 53/53/27
f 56/56/28 57/57/28 55/55/28
f 58/58/29 59/59/29 57/57/29
f 60/60/30 61/61/30 59/59/30
f 38/62/31 22/63/31 6/64/31
f 62/65/32 63/66/32 61/61/32
f 64/67/33 1/68/33 63/66/33
f 31/69/34 47/70/34 63/71/34
f 2/1/1 4/4/1 3/2/1
f 4/4/2 6/6/2 5/5/2
f 6/6/3 8/8/3 7/7/3
f 8/8/4 10/10/4 9/9/4
f 10/10/5 12/12/5 11/11/5
f 12/12/6 14/14/6 13/13/6
f 14/14/7 16/16/7 15/15/7
f 16/16/8 18/18/8 17/17/8
f 18/18/9 20/20/9 19/19/9
f 20/20/10 22/22/10 21/21/10
f 22/22/11 24/24/11 23/23/11
f 24/24/12 26/26/12 25/25/12
f 26/26/13 28/28/13 27/27/13
f 28/28/14 30/30/14 29/29/14
f 30/30/15 32/32/15 31/31/15
f 32/32/16 34/34/16 33/33/16
f 34/34/17 36/36/17 35/35/17
f 36/36/18 38/38/18 37/37/18
f 38/38/19 40/40/19 39/39/19
f 40/40/20 42/42/20 41/41/20
f 42/42/21 44/44/21 43/43/21
f 44/44/22 46/46/22 45/45/22
f 46/46/23 48/48/23 47/47/23
f 48/48/24 50/50/24 49/49/24
f 50/50/25 52/52/25 51/51/25
f 52/52/26 54/54/26 53/53/26
f 54/54/27 56/56/27 55/55/27
f 56/56/28 58/58/28 57/57/28
f 58/58/29 60/60/29 59/59/29
f 60/60/30 62/65/30 61/61/30
f 6/64/31 4/72/31 2/73/31
f 2/73/31 64/74/31 6/64/31
f 64/74/31 62/75/31 6/64/31
f 62/75/31 60/76/31 58/77/31
f 58/77/31 56/78/31 54/79/31
f 54/79/31 52/80/31 50/81/31
f 50/81/31 48/82/31 54/79/31
f 48/82/31 46/83/31 54/79/31
f 46/83/31 44/84/31 42/85/31
f 42/85/31 40/86/31 38/62/31
f 38/62/31 36/87/31 30/88/31
f 36/87/31 34/89/31 30/88/31
f 34/89/31 32/90/31 30/88/31
f 30/88/31 28/91/31 26/92/31
f 26/92/31 24/93/31 22/63/31
f 22/63/31 20/94/31 14/95/31
f 20/94/31 18/96/31 14/95/31
f 18/96/31 16/97/31 14/95/31
f 14/95/31 12/98/31 10/99/31
f 10/99/31 8/100/31 6/64/31
f 62/75/31 58/77/31 6/64/31
f 58/77/31 54/79/31 6/64/31
f 46/83/31 42/85/31 54/79/31
f 42/85/31 38/62/31 54/79/31
f 30/88/31 26/92/31 38/62/31
f 26/92/31 22/63/31 38/62/31
f 14/95/31 10/99/31 22/63/31
f 10/99/31 6/64/31 22/63/31
f 6/64/31 54/79/31 38/62/31
f 62/65/32 64/67/32 63/66/32
f 64/67/33 2/101/33 1/68/33
f 63/71/34 1/102/34 3/103/34
f 3/103/34 5/104/34 7/105/34
f 7/105/34 9/106/34 11/107/34
f 11/107/34 13/108/34 15/109/34
f 15/109/34 17/110/34 19/111/34
f 19/111/34 21/112/34 23/113/34
f 23/113/34 25/114/34 27/115/34
f 27/115/34 29/116/34 31/69/34
f 31/69/34 33/117/34 35/118/34
f 35/118/34 37/119/34 39/120/34
f 39/120/34 41/121/34 43/122/34
f 43/122/34 45/123/34 47/70/34
f 47/70/34 49/124/34 51/125/34
f 51/125/34 53/126/34 55/127/34
f 55/127/34 57/128/34 59/129/34
f 59/129/34 61/130/34 63/71/34
f 63/71/34 3/103/34 15/109/34
f 3/103/34 7/105/34 15/109/34
f 7/105/34 11/107/34 15/109/34
f 15/109/34 19/111/34 31/69/34
f 19/111/34 23/113/34 31/69/34
f 23/113/34 27/115/34 31/69/34
f 31/69/34 35/118/34 47/70/34
f 35/118/34 39/120/34 47/70/34
f 39/120/34 43/122/34 47/70/34
f 47/70/34 51/125/34 63/71/34
f 51/125/34 55/127/34 63/71/34
f 55/127/34 59/129/34 63/71/34
f 63/71/34 15/109/34 31/69/34
