# Blender 4.1.1
# www.blender.org
mtllib bill.mtl
o Cube.004
v -8.978154 -12.180237 58.593517
v -8.978154 -12.180237 77.125618
v -8.978154 33.916142 58.593517
v -8.978154 33.916142 77.125618
v -29.848232 -12.180237 58.593517
v -29.848232 -12.180237 77.125618
v -29.848232 33.916142 58.593517
v -29.848232 33.916142 77.125618
v -8.978155 -12.180235 -60.687981
v -8.978155 -12.180235 -42.155884
v -8.978155 33.916142 -60.687981
v -8.978155 33.916142 -42.155884
v -29.848230 -12.180235 -60.687981
v -29.848230 -12.180235 -42.155884
v -29.848230 33.916142 -60.687981
v -29.848230 33.916142 -42.155884
v -8.978155 -12.180235 -33.005875
v -8.978155 -12.180235 -14.473778
v -8.978155 33.916142 -33.005875
v -8.978155 33.916142 -14.473778
v -29.848230 -12.180235 -33.005875
v -29.848230 -12.180235 -14.473778
v -29.848230 33.916142 -33.005875
v -29.848230 33.916142 -14.473778
v -8.978155 -12.180237 -5.536415
v -8.978155 -12.180237 12.995682
v -8.978155 33.916138 -5.536415
v -8.978155 33.916138 12.995682
v -29.848230 -12.180237 -5.536415
v -29.848230 -12.180237 12.995682
v -29.848230 33.916138 -5.536415
v -29.848230 33.916138 12.995682
v -8.978155 -12.180237 29.572536
v -8.978155 -12.180237 48.104637
v -8.978155 33.916138 29.572536
v -8.978155 33.916138 48.104637
v -29.848230 -12.180237 29.572536
v -29.848230 -12.180237 48.104637
v -29.848230 33.916138 29.572536
v -29.848230 33.916138 48.104637
v -8.894324 -11.287161 -42.420074
v -8.894324 -11.287161 -33.697823
v -8.894324 10.408382 -42.420074
v -8.894324 10.408381 -33.697823
v -18.716953 -11.287161 -42.420074
v -18.716953 -11.287161 -33.697823
v -18.716953 10.408382 -42.420074
v -18.716953 10.408381 -33.697823
v -8.894324 -11.287161 -14.494370
v -8.894324 -11.287163 -5.772125
v -8.894324 10.408382 -14.494370
v -8.894324 10.408382 -5.772125
v -18.716953 -11.287161 -14.494370
v -18.716953 -11.287163 -5.772125
v -18.716953 10.408382 -14.494370
v -18.716953 10.408382 -5.772125
v -8.691540 -11.679321 13.988720
v -8.691540 -11.679321 27.902367
v -8.691540 22.929201 13.988720
v -8.691540 22.929199 27.902367
v -24.360504 -11.679321 13.988720
v -24.360504 -11.679321 27.902367
v -24.360504 22.929201 13.988720
v -24.360504 22.929199 27.902367
v -8.894324 -11.287163 48.384602
v -8.894324 -11.287163 57.106850
v -8.894324 10.408382 48.384602
v -8.894324 10.408382 57.106850
v -18.716953 -11.287163 48.384602
v -18.716953 -11.287163 57.106850
v -18.716953 10.408382 48.384602
v -18.716953 10.408382 57.106850
v 7.843094 -11.287161 -36.254234
v 7.831116 -11.287161 -44.976471
v 7.843094 10.408381 -36.254234
v 7.831116 10.408382 -44.976471
v 17.665714 -11.287161 -36.267715
v 17.653736 -11.287161 -44.989952
v 17.665714 10.408381 -36.267715
v 17.653736 10.408382 -44.989952
v 7.687534 -11.679321 -1.858093
v 7.668427 -11.679319 -15.771721
v 7.687534 22.929201 -1.858093
v 7.668427 22.929201 -15.771721
v 23.356483 -11.679321 -1.879608
v 23.337376 -11.679319 -15.793243
v 23.356483 22.929201 -1.879608
v 23.337376 22.929201 -15.793243
v 7.929420 -11.287163 26.624687
v 7.917444 -11.287163 17.902451
v 7.929420 10.408381 26.624687
v 7.917444 10.408382 17.902451
v 17.752041 -11.287163 26.611198
v 17.740063 -11.287163 17.888962
v 17.752041 10.408381 26.611198
v 17.740063 10.408382 17.888962
v 7.967762 -11.287163 54.550354
v 7.955786 -11.287163 45.828114
v 7.967762 10.408382 54.550350
v 7.955786 10.408382 45.828114
v 17.790382 -11.287163 54.536865
v 17.778404 -11.287163 45.814625
v 17.790382 10.408382 54.536861
v 17.778404 10.408382 45.814625
v 7.912914 -12.180235 -46.463249
v 7.887466 -12.180235 -64.995323
v 7.912914 33.916142 -46.463249
v 7.887466 33.916142 -64.995323
v 28.782970 -12.180235 -46.491898
v 28.757526 -12.180235 -65.023979
v 28.782970 33.916142 -46.491905
v 28.757526 33.916142 -65.023979
v 7.952753 -12.180235 -17.442284
v 7.927307 -12.180235 -35.974365
v 7.952753 33.916142 -17.442291
v 7.927307 33.916142 -35.974373
v 28.822807 -12.180235 -17.470940
v 28.797359 -12.180235 -36.003021
v 28.822807 33.916142 -17.470947
v 28.797359 33.916142 -36.003029
v 8.000956 -12.180237 17.666630
v 7.975510 -12.180237 -0.865456
v 8.000956 33.916138 17.666630
v 7.975510 33.916138 -0.865456
v 28.871014 -12.180237 17.637970
v 28.845566 -12.180237 -0.894112
v 28.871014 33.916138 17.637970
v 28.845566 33.916138 -0.894112
v 8.038668 -12.180237 45.136055
v 8.013222 -12.180237 26.603970
v 8.038668 33.916138 45.136055
v 8.013222 33.916138 26.603970
v 28.908726 -12.180237 45.107395
v 28.883278 -12.180237 26.575314
v 28.908726 33.916138 45.107395
v 28.883278 33.916138 26.575314
v 8.076674 -12.180235 72.818146
v 8.051226 -12.180235 54.286064
v 8.076674 33.916138 72.818146
v 8.051226 33.916138 54.286064
v 28.946732 -12.180235 72.789490
v 28.921284 -12.180235 54.257408
v 28.946732 33.916138 72.789490
v 28.921284 33.916138 54.257408
vn -0.0000 -0.0000 -1.0000
vn -0.0000 1.0000 -0.0000
vn -1.0000 -0.0000 -0.0000
vn -0.0000 -0.0000 1.0000
vn 1.0000 -0.0000 -0.0000
vn -0.0000 -1.0000 -0.0000
vn 0.0014 -0.0000 1.0000
vn 1.0000 -0.0000 -0.0014
vn -0.0014 -0.0000 -1.0000
vn -1.0000 -0.0000 0.0014
vt 0.747854 0.500000
vt 0.500000 0.747854
vt 0.500000 0.500000
vt 0.252146 0.995707
vt 0.252146 0.747854
vt 0.500000 0.004293
vt 0.252146 0.252146
vt 0.252146 0.004293
vt 0.252146 0.500000
vt 0.004293 0.747854
vt 0.004293 0.500000
vt 0.500000 0.252146
vt 0.500000 0.995707
vt 0.747854 0.747854
s 0
usemtl Material.004
f 5/1/1 3/2/1 1/3/1
f 3/2/2 8/4/2 4/5/2
f 7/6/3 6/7/3 8/8/3
f 2/9/4 8/10/4 6/11/4
f 1/3/5 4/5/5 2/9/5
f 5/12/6 2/9/6 6/7/6
f 5/1/1 7/14/1 3/2/1
f 3/2/2 7/13/2 8/4/2
f 7/6/3 5/12/3 6/7/3
f 2/9/4 4/5/4 8/10/4
f 1/3/5 3/2/5 4/5/5
f 5/12/6 1/3/6 2/9/6
usemtl Material
f 13/1/1 11/2/1 9/3/1
f 11/2/2 16/4/2 12/5/2
f 15/6/3 14/7/3 16/8/3
f 10/9/4 16/10/4 14/11/4
f 9/3/5 12/5/5 10/9/5
f 13/12/6 10/9/6 14/7/6
f 13/1/1 15/14/1 11/2/1
f 11/2/2 15/13/2 16/4/2
f 15/6/3 13/12/3 14/7/3
f 10/9/4 12/5/4 16/10/4
f 9/3/5 11/2/5 12/5/5
f 13/12/6 9/3/6 10/9/6
usemtl Material.001
f 21/1/1 19/2/1 17/3/1
f 19/2/2 24/4/2 20/5/2
f 23/6/3 22/7/3 24/8/3
f 18/9/4 24/10/4 22/11/4
f 17/3/5 20/5/5 18/9/5
f 21/12/6 18/9/6 22/7/6
f 21/1/1 23/14/1 19/2/1
f 19/2/2 23/13/2 24/4/2
f 23/6/3 21/12/3 22/7/3
f 18/9/4 20/5/4 24/10/4
f 17/3/5 19/2/5 20/5/5
f 21/12/6 17/3/6 18/9/6
usemtl Material.002
f 29/1/1 27/2/1 25/3/1
f 27/2/2 32/4/2 28/5/2
f 31/6/3 30/7/3 32/8/3
f 26/9/4 32/10/4 30/11/4
f 25/3/5 28/5/5 26/9/5
f 29/12/6 26/9/6 30/7/6
f 29/1/1 31/14/1 27/2/1
f 27/2/2 31/13/2 32/4/2
f 31/6/3 29/12/3 30/7/3
f 26/9/4 28/5/4 32/10/4
f 25/3/5 27/2/5 28/5/5
f 29/12/6 25/3/6 26/9/6
usemtl Material.003
f 37/1/1 35/2/1 33/3/1
f 35/2/2 40/4/2 36/5/2
f 39/6/3 38/7/3 40/8/3
f 34/9/4 40/10/4 38/11/4
f 33/3/5 36/5/5 34/9/5
f 37/12/6 34/9/6 38/7/6
f 37/1/1 39/14/1 35/2/1
f 35/2/2 39/13/2 40/4/2
f 39/6/3 37/12/3 38/7/3
f 34/9/4 36/5/4 40/10/4
f 33/3/5 35/2/5 36/5/5
f 37/12/6 33/3/6 34/9/6
usemtl Material.005
f 45/1/1 43/2/1 41/3/1
f 43/2/2 48/4/2 44/5/2
f 47/6/3 46/7/3 48/8/3
f 42/9/4 48/10/4 46/11/4
f 41/3/5 44/5/5 42/9/5
f 45/12/6 42/9/6 46/7/6
f 45/1/1 47/14/1 43/2/1
f 43/2/2 47/13/2 48/4/2
f 47/6/3 45/12/3 46/7/3
f 42/9/4 44/5/4 48/10/4
f 41/3/5 43/2/5 44/5/5
f 45/12/6 41/3/6 42/9/6
usemtl Material.006
f 53/1/1 51/2/1 49/3/1
f 51/2/2 56/4/2 52/5/2
f 55/6/3 54/7/3 56/8/3
f 50/9/4 56/10/4 54/11/4
f 49/3/5 52/5/5 50/9/5
f 53/12/6 50/9/6 54/7/6
f 53/1/1 55/14/1 51/2/1
f 51/2/2 55/13/2 56/4/2
f 55/6/3 53/12/3 54/7/3
f 50/9/4 52/5/4 56/10/4
f 49/3/5 51/2/5 52/5/5
f 53/12/6 49/3/6 50/9/6
usemtl Material.007
f 61/1/1 59/2/1 57/3/1
f 59/2/2 64/4/2 60/5/2
f 63/6/3 62/7/3 64/8/3
f 58/9/4 64/10/4 62/11/4
f 57/3/5 60/5/5 58/9/5
f 61/12/6 58/9/6 62/7/6
f 61/1/1 63/14/1 59/2/1
f 59/2/2 63/13/2 64/4/2
f 63/6/3 61/12/3 62/7/3
f 58/9/4 60/5/4 64/10/4
f 57/3/5 59/2/5 60/5/5
f 61/12/6 57/3/6 58/9/6
usemtl Material.008
f 69/1/1 67/2/1 65/3/1
f 67/2/2 72/4/2 68/5/2
f 71/6/3 70/7/3 72/8/3
f 66/9/4 72/10/4 70/11/4
f 65/3/5 68/5/5 66/9/5
f 69/12/6 66/9/6 70/7/6
f 69/1/1 71/14/1 67/2/1
f 67/2/2 71/13/2 72/4/2
f 71/6/3 69/12/3 70/7/3
f 66/9/4 68/5/4 72/10/4
f 65/3/5 67/2/5 68/5/5
f 69/12/6 65/3/6 66/9/6
usemtl Material.009
f 77/1/7 75/2/7 73/3/7
f 76/5/2 79/13/2 80/4/2
f 79/6/8 78/7/8 80/8/8
f 74/9/9 80/10/9 78/11/9
f 73/3/10 76/5/10 74/9/10
f 77/12/6 74/9/6 78/7/6
f 77/1/7 79/14/7 75/2/7
f 76/5/2 75/2/2 79/13/2
f 79/6/8 77/12/8 78/7/8
f 74/9/9 76/5/9 80/10/9
f 73/3/10 75/2/10 76/5/10
f 77/12/6 73/3/6 74/9/6
usemtl Material.010
f 85/1/7 83/2/7 81/3/7
f 84/5/2 87/13/2 88/4/2
f 87/6/8 86/7/8 88/8/8
f 82/9/9 88/10/9 86/11/9
f 81/3/10 84/5/10 82/9/10
f 85/12/6 82/9/6 86/7/6
f 85/1/7 87/14/7 83/2/7
f 84/5/2 83/2/2 87/13/2
f 87/6/8 85/12/8 86/7/8
f 82/9/9 84/5/9 88/10/9
f 81/3/10 83/2/10 84/5/10
f 85/12/6 81/3/6 82/9/6
usemtl Material.011
f 93/1/7 91/2/7 89/3/7
f 92/5/2 95/13/2 96/4/2
f 95/6/8 94/7/8 96/8/8
f 90/9/9 96/10/9 94/11/9
f 89/3/10 92/5/10 90/9/10
f 93/12/6 90/9/6 94/7/6
f 93/1/7 95/14/7 91/2/7
f 92/5/2 91/2/2 95/13/2
f 95/6/8 93/12/8 94/7/8
f 90/9/9 92/5/9 96/10/9
f 89/3/10 91/2/10 92/5/10
f 93/12/6 89/3/6 90/9/6
usemtl Material.012
f 101/1/7 99/2/7 97/3/7
f 100/5/2 103/13/2 104/4/2
f 103/6/8 102/7/8 104/8/8
f 98/9/9 104/10/9 102/11/9
f 98/9/10 99/2/10 100/5/10
f 101/12/6 98/9/6 102/7/6
f 101/1/7 103/14/7 99/2/7
f 100/5/2 99/2/2 103/13/2
f 103/6/8 101/12/8 102/7/8
f 98/9/9 100/5/9 104/10/9
f 98/9/10 97/3/10 99/2/10
f 101/12/6 97/3/6 98/9/6
usemtl Material.013
f 109/1/7 107/2/7 105/3/7
f 108/5/2 111/13/2 112/4/2
f 111/6/8 110/7/8 112/8/8
f 106/9/9 112/10/9 110/11/9
f 106/9/10 107/2/10 108/5/10
f 109/12/6 106/9/6 110/7/6
f 109/1/7 111/14/7 107/2/7
f 108/5/2 107/2/2 111/13/2
f 111/6/8 109/12/8 110/7/8
f 106/9/9 108/5/9 112/10/9
f 106/9/10 105/3/10 107/2/10
f 109/12/6 105/3/6 106/9/6
usemtl Material.014
f 117/1/7 115/2/7 113/3/7
f 116/5/2 119/13/2 120/4/2
f 119/6/8 118/7/8 120/8/8
f 114/9/9 120/10/9 118/11/9
f 114/9/10 115/2/10 116/5/10
f 117/12/6 114/9/6 118/7/6
f 117/1/7 119/14/7 115/2/7
f 116/5/2 115/2/2 119/13/2
f 119/6/8 117/12/8 118/7/8
f 114/9/9 116/5/9 120/10/9
f 114/9/10 113/3/10 115/2/10
f 117/12/6 113/3/6 114/9/6
usemtl Material.015
f 125/1/7 123/2/7 121/3/7
f 124/5/2 127/13/2 128/4/2
f 127/6/8 126/7/8 128/8/8
f 122/9/9 128/10/9 126/11/9
f 121/3/10 124/5/10 122/9/10
f 125/12/6 122/9/6 126/7/6
f 125/1/7 127/14/7 123/2/7
f 124/5/2 123/2/2 127/13/2
f 127/6/8 125/12/8 126/7/8
f 122/9/9 124/5/9 128/10/9
f 121/3/10 123/2/10 124/5/10
f 125/12/6 121/3/6 122/9/6
usemtl Material.016
f 133/1/7 131/2/7 129/3/7
f 132/5/2 135/13/2 136/4/2
f 135/6/8 134/7/8 136/8/8
f 130/9/9 136/10/9 134/11/9
f 129/3/10 132/5/10 130/9/10
f 133/12/6 130/9/6 134/7/6
f 133/1/7 135/14/7 131/2/7
f 132/5/2 131/2/2 135/13/2
f 135/6/8 133/12/8 134/7/8
f 130/9/9 132/5/9 136/10/9
f 129/3/10 131/2/10 132/5/10
f 133/12/6 129/3/6 130/9/6
usemtl Material.017
f 141/1/7 139/2/7 137/3/7
f 140/5/2 143/13/2 144/4/2
f 143/6/8 142/7/8 144/8/8
f 138/9/9 144/10/9 142/11/9
f 138/9/10 139/2/10 140/5/10
f 141/12/6 138/9/6 142/7/6
f 141/1/7 143/14/7 139/2/7
f 140/5/2 139/2/2 143/13/2
f 143/6/8 141/12/8 142/7/8
f 138/9/9 140/5/9 144/10/9
f 138/9/10 137/3/10 139/2/10
f 141/12/6 137/3/6 138/9/6
