# Blender 4.1.1
# www.blender.org
mtllib corn.mtl
o 円錐
v 0.000000 -0.475105 -0.836797
v 0.179311 -0.475105 -0.819136
v 0.351730 -0.475105 -0.766833
v 0.510633 -0.475105 -0.681898
v 0.649913 -0.475105 -0.567594
v 0.764217 -0.475105 -0.428314
v 0.849152 -0.475105 -0.269411
v 0.901455 -0.475105 -0.096992
v 0.919116 -0.475105 0.082319
v 0.901455 -0.475105 0.261630
v 0.849152 -0.475105 0.434050
v 0.764217 -0.475105 0.592953
v 0.649913 -0.475105 0.732232
v 0.510633 -0.475105 0.846536
v 0.351730 -0.475105 0.931471
v 0.179311 -0.475105 0.983774
v 0.000000 -0.475105 1.001435
v -0.179311 -0.475105 0.983774
v -0.351730 -0.475105 0.931471
v -0.510633 -0.475105 0.846536
v -0.649913 -0.475105 0.732232
v -0.764217 -0.475105 0.592953
v -0.849152 -0.475105 0.434050
v -0.901455 -0.475105 0.261630
v -0.919116 -0.475105 0.082319
v -0.901455 -0.475105 -0.096992
v -0.849152 -0.475105 -0.269411
v -0.764217 -0.475105 -0.428314
v -0.649913 -0.475105 -0.567594
v -0.510633 -0.475105 -0.681898
v -0.351730 -0.475105 -0.766833
v -0.179311 -0.475105 -0.819136
v 0.000000 1.363127 0.082319
v -1.000000 -0.470698 1.088946
v -1.000000 -0.599881 1.088946
v -1.000000 -0.470698 -0.911054
v -1.000000 -0.599881 -0.911054
v 1.000000 -0.470698 1.088946
v 1.000000 -0.599881 1.088946
v 1.000000 -0.470698 -0.911054
v 1.000000 -0.599881 -0.911054
vn 0.0878 0.4455 -0.8910
vn 0.2599 0.4455 -0.8567
vn 0.4220 0.4455 -0.7896
vn 0.5680 0.4455 -0.6921
vn 0.6921 0.4455 -0.5680
vn 0.7896 0.4455 -0.4220
vn 0.8567 0.4455 -0.2599
vn 0.8910 0.4455 -0.0878
vn 0.8910 0.4455 0.0878
vn 0.8567 0.4455 0.2599
vn 0.7896 0.4455 0.4220
vn 0.6921 0.4455 0.5680
vn 0.5680 0.4455 0.6921
vn 0.4220 0.4455 0.7896
vn 0.2599 0.4455 0.8567
vn 0.0878 0.4455 0.8910
vn -0.0878 0.4455 0.8910
vn -0.2599 0.4455 0.8567
vn -0.4220 0.4455 0.7896
vn -0.5680 0.4455 0.6921
vn -0.6921 0.4455 0.5680
vn -0.7896 0.4455 0.4220
vn -0.8567 0.4455 0.2599
vn -0.8910 0.4455 0.0878
vn -0.8910 0.4455 -0.0878
vn -0.8567 0.4455 -0.2599
vn -0.7896 0.4455 -0.4220
vn -0.6921 0.4455 -0.5680
vn -0.5680 0.4455 -0.6921
vn -0.4220 0.4455 -0.7896
vn -0.0000 -1.0000 -0.0000
vn -0.2599 0.4455 -0.8567
vn -0.0878 0.4455 -0.8910
vn 1.0000 -0.0000 -0.0000
vn -0.0000 -0.0000 1.0000
vn -1.0000 -0.0000 -0.0000
vn -0.0000 -0.0000 -1.0000
vn -0.0000 1.0000 -0.0000
vt 0.770611 0.451880
vt 0.770611 0.229627
vt 0.813970 0.447610
vt 0.855663 0.434962
vt 0.894088 0.414424
vt 0.927767 0.386784
vt 0.955407 0.353104
vt 0.975946 0.314680
vt 0.988593 0.272986
vt 0.992864 0.229627
vt 0.988593 0.186267
vt 0.975946 0.144574
vt 0.955407 0.106150
vt 0.927767 0.072470
vt 0.894088 0.044830
vt 0.855663 0.024292
vt 0.813970 0.011644
vt 0.770611 0.007374
vt 0.727251 0.011644
vt 0.685558 0.024292
vt 0.647133 0.044830
vt 0.613454 0.072470
vt 0.585814 0.106150
vt 0.565275 0.144574
vt 0.552628 0.186267
vt 0.548357 0.229627
vt 0.552628 0.272986
vt 0.565275 0.314680
vt 0.585814 0.353104
vt 0.613454 0.386784
vt 0.647133 0.414424
vt 0.685558 0.434962
vt 0.751263 0.578103
vt 0.576830 0.694655
vt 0.693382 0.869088
vt 0.727251 0.447610
vt 0.404045 0.007232
vt 0.206007 0.205270
vt 0.206007 0.007232
vt 0.404045 0.205270
vt 0.206007 0.403307
vt 0.404045 0.403307
vt 0.206007 0.601345
vt 0.404045 0.601345
vt 0.206007 0.799383
vt 0.007970 0.601345
vt 0.007970 0.403307
vt 0.602083 0.403307
vt 0.722322 0.871938
vt 0.751263 0.869088
vt 0.779091 0.860646
vt 0.804737 0.846938
vt 0.827217 0.828490
vt 0.845665 0.806010
vt 0.859373 0.780364
vt 0.867815 0.752536
vt 0.870665 0.723595
vt 0.867815 0.694655
vt 0.859373 0.666827
vt 0.845665 0.641180
vt 0.827217 0.618701
vt 0.804737 0.600253
vt 0.779091 0.586544
vt 0.722322 0.575252
vt 0.693382 0.578103
vt 0.665554 0.586544
vt 0.639908 0.600253
vt 0.617428 0.618701
vt 0.598980 0.641180
vt 0.585272 0.666827
vt 0.573980 0.723595
vt 0.576830 0.752536
vt 0.585272 0.780364
vt 0.598980 0.806010
vt 0.617428 0.828490
vt 0.639908 0.846938
vt 0.665554 0.860646
vt 0.404045 0.799383
vt 0.602083 0.601345
s 0
usemtl マテリアル.002
f 1/1/1 33/2/1 2/3/1
f 2/3/2 33/2/2 3/4/2
f 3/4/3 33/2/3 4/5/3
f 4/5/4 33/2/4 5/6/4
f 5/6/5 33/2/5 6/7/5
f 6/7/6 33/2/6 7/8/6
f 7/8/7 33/2/7 8/9/7
f 8/9/8 33/2/8 9/10/8
f 9/10/9 33/2/9 10/11/9
f 10/11/10 33/2/10 11/12/10
f 11/12/11 33/2/11 12/13/11
f 12/13/12 33/2/12 13/14/12
f 13/14/13 33/2/13 14/15/13
f 14/15/14 33/2/14 15/16/14
f 15/16/15 33/2/15 16/17/15
f 16/17/16 33/2/16 17/18/16
f 17/18/17 33/2/17 18/19/17
f 18/19/18 33/2/18 19/20/18
f 19/20/19 33/2/19 20/21/19
f 20/21/20 33/2/20 21/22/20
f 21/22/21 33/2/21 22/23/21
f 22/23/22 33/2/22 23/24/22
f 23/24/23 33/2/23 24/25/23
f 24/25/24 33/2/24 25/26/24
f 25/26/25 33/2/25 26/27/25
f 26/27/26 33/2/26 27/28/26
f 27/28/27 33/2/27 28/29/27
f 28/29/28 33/2/28 29/30/28
f 29/30/29 33/2/29 30/31/29
f 30/31/30 33/2/30 31/32/30
f 16/33/31 24/34/31 32/35/31
f 31/32/32 33/2/32 32/36/32
f 32/36/33 33/2/33 1/1/33
f 35/37/34 36/38/34 34/39/34
f 37/40/35 40/41/35 36/38/35
f 41/42/36 38/43/36 40/41/36
f 39/44/37 34/45/37 38/43/37
f 40/41/31 34/46/31 36/47/31
f 37/48/38 39/44/38 41/42/38
f 32/35/31 1/49/31 2/50/31
f 2/50/31 3/51/31 4/52/31
f 4/52/31 5/53/31 6/54/31
f 6/54/31 7/55/31 8/56/31
f 8/56/31 9/57/31 10/58/31
f 10/58/31 11/59/31 12/60/31
f 12/60/31 13/61/31 14/62/31
f 14/62/31 15/63/31 16/33/31
f 16/33/31 17/64/31 18/65/31
f 18/65/31 19/66/31 20/67/31
f 20/67/31 21/68/31 22/69/31
f 22/69/31 23/70/31 24/34/31
f 24/34/31 25/71/31 26/72/31
f 26/72/31 27/73/31 28/74/31
f 28/74/31 29/75/31 30/76/31
f 30/76/31 31/77/31 32/35/31
f 32/35/31 2/50/31 8/56/31
f 2/50/31 4/52/31 8/56/31
f 4/52/31 6/54/31 8/56/31
f 8/56/31 10/58/31 16/33/31
f 10/58/31 12/60/31 16/33/31
f 12/60/31 14/62/31 16/33/31
f 16/33/31 18/65/31 24/34/31
f 18/65/31 20/67/31 24/34/31
f 20/67/31 22/69/31 24/34/31
f 24/34/31 26/72/31 32/35/31
f 26/72/31 28/74/31 32/35/31
f 28/74/31 30/76/31 32/35/31
f 32/35/31 8/56/31 16/33/31
f 35/37/34 37/40/34 36/38/34
f 37/40/35 41/42/35 40/41/35
f 41/42/36 39/44/36 38/43/36
f 39/44/37 35/78/37 34/45/37
f 40/41/31 38/43/31 34/46/31
f 37/48/38 35/79/38 39/44/38
